<svg width="19" height="20" viewBox="0 0 19 20" fill="none" xmlns="http://www.w3.org/2000/svg">
<path d="M16.8588 1.55024H14.3397V0.581339C14.3397 0.427158 14.2784 0.279292 14.1694 0.17027C14.0604 0.0612479 13.9125 0 13.7583 0C13.6042 0 13.4563 0.0612479 13.3473 0.17027C13.2383 0.279292 13.177 0.427158 13.177 0.581339V1.55024H5.03827V0.581339C5.03827 0.427158 4.97702 0.279292 4.868 0.17027C4.75898 0.0612479 4.61111 0 4.45693 0C4.30275 0 4.15488 0.0612479 4.04586 0.17027C3.93684 0.279292 3.87559 0.427158 3.87559 0.581339V1.55024H1.35646C0.996826 1.55064 0.65204 1.69368 0.397742 1.94798C0.143444 2.20228 0.000403136 2.54706 0 2.90669V18.4091C0.000403136 18.7687 0.143444 19.1135 0.397742 19.3678C0.65204 19.6221 0.996826 19.7651 1.35646 19.7655H16.8588C17.2185 19.7651 17.5632 19.6221 17.8175 19.3678C18.0718 19.1135 18.2149 18.7687 18.2153 18.4091V2.90669C18.2149 2.54706 18.0718 2.20228 17.8175 1.94798C17.5632 1.69368 17.2185 1.55064 16.8588 1.55024ZM1.35646 2.71291H3.87559V3.68181C3.87559 3.83599 3.93684 3.98386 4.04586 4.09288C4.15488 4.2019 4.30275 4.26315 4.45693 4.26315C4.61111 4.26315 4.75898 4.2019 4.868 4.09288C4.97702 3.98386 5.03827 3.83599 5.03827 3.68181V2.71291H13.177V3.68181C13.177 3.83599 13.2383 3.98386 13.3473 4.09288C13.4563 4.2019 13.6042 4.26315 13.7583 4.26315C13.9125 4.26315 14.0604 4.2019 14.1694 4.09288C14.2784 3.98386 14.3397 3.83599 14.3397 3.68181V2.71291H16.8588C16.9102 2.71298 16.9594 2.73342 16.9958 2.76974C17.0321 2.80607 17.0525 2.85532 17.0526 2.90669V6.20095H1.16268V2.90669C1.16274 2.85532 1.18318 2.80607 1.21951 2.76974C1.25583 2.73342 1.30508 2.71298 1.35646 2.71291ZM16.8588 18.6028H1.35646C1.30508 18.6028 1.25583 18.5823 1.21951 18.546C1.18318 18.5097 1.16274 18.4604 1.16268 18.4091V7.36362H17.0526V18.4091C17.0525 18.4604 17.0321 18.5097 16.9958 18.546C16.9594 18.5823 16.9102 18.6028 16.8588 18.6028ZM8.91386 14.1456C8.91387 14.5671 8.78892 14.9791 8.55481 15.3296C8.32071 15.6801 7.98795 15.9533 7.5986 16.1147C7.20925 16.2761 6.7808 16.3185 6.36738 16.2364C5.95397 16.1544 5.57415 15.9516 5.27595 15.6538C5.16687 15.5448 5.10553 15.397 5.10544 15.2428C5.10535 15.0886 5.16652 14.9407 5.27548 14.8316C5.38444 14.7225 5.53227 14.6612 5.68645 14.6611C5.84063 14.661 5.98854 14.7222 6.09762 14.8311C6.21034 14.9437 6.34908 15.0268 6.50155 15.0729C6.65403 15.1191 6.81553 15.1269 6.97177 15.0958C7.128 15.0646 7.27414 14.9954 7.39725 14.8943C7.52036 14.7932 7.61663 14.6633 7.67755 14.5161C7.73847 14.3689 7.76215 14.2089 7.7465 14.0504C7.73084 13.8919 7.67634 13.7396 7.58781 13.6072C7.49928 13.4747 7.37946 13.3662 7.23895 13.2911C7.09845 13.216 6.94159 13.1767 6.78229 13.1767C6.67278 13.1767 6.5655 13.1458 6.4728 13.0875C6.3801 13.0292 6.30575 12.9459 6.25832 12.8472C6.21088 12.7485 6.19229 12.6384 6.20468 12.5296C6.21707 12.4208 6.25994 12.3177 6.32835 12.2322L7.12296 11.2389H5.61961C5.46543 11.2389 5.31756 11.1777 5.20854 11.0687C5.09952 10.9596 5.03827 10.8118 5.03827 10.6576C5.03827 10.5034 5.09952 10.3555 5.20854 10.2465C5.31756 10.1375 5.46543 10.0763 5.61961 10.0763H8.33252C8.44203 10.0763 8.5493 10.1072 8.642 10.1655C8.7347 10.2238 8.80905 10.3071 8.85649 10.4058C8.90392 10.5044 8.92252 10.6145 8.91013 10.7233C8.89774 10.8321 8.85487 10.9352 8.78646 11.0207L7.78927 12.2672C8.12892 12.4495 8.41284 12.7205 8.61085 13.0512C8.80886 13.3819 8.91358 13.7601 8.91386 14.1456ZM12.7895 10.6576V15.6959C12.7895 15.85 12.7282 15.9979 12.6192 16.1069C12.5102 16.216 12.3623 16.2772 12.2081 16.2772C12.0539 16.2772 11.9061 16.216 11.797 16.1069C11.688 15.9979 11.6268 15.85 11.6268 15.6959V11.8203L11.0067 12.2853C10.8833 12.3778 10.7283 12.4176 10.5757 12.3958C10.4231 12.374 10.2853 12.2924 10.1928 12.1691C10.1003 12.0457 10.0606 11.8907 10.0824 11.7381C10.1042 11.5854 10.1857 11.4477 10.3091 11.3552L11.8593 10.1925C11.9457 10.1278 12.0484 10.0883 12.1559 10.0786C12.2634 10.0689 12.3715 10.0894 12.4681 10.1376C12.5646 10.1859 12.6459 10.2601 12.7026 10.352C12.7594 10.4438 12.7894 10.5496 12.7895 10.6576Z" fill="#FFFBF7"/>
</svg>
