<svg width="20" height="20" viewBox="0 0 20 20" fill="none" xmlns="http://www.w3.org/2000/svg">
<path d="M5.72607 6.33958C5.72608 6.17687 5.79072 6.02083 5.90577 5.90577C6.02083 5.79072 6.17687 5.72608 6.33958 5.72607H12.8837C13.0464 5.72607 13.2024 5.79071 13.3175 5.90577C13.4325 6.02082 13.4972 6.17687 13.4972 6.33958C13.4972 6.50229 13.4325 6.65834 13.3175 6.7734C13.2024 6.88845 13.0464 6.95309 12.8837 6.95309H6.33958C6.17687 6.95308 6.02083 6.88844 5.90577 6.77339C5.79072 6.65833 5.72608 6.50229 5.72607 6.33958ZM6.33958 10.2251H12.8837C13.0464 10.2251 13.2024 10.1605 13.3175 10.0454C13.4325 9.93038 13.4972 9.77433 13.4972 9.61162C13.4972 9.44891 13.4325 9.29286 13.3175 9.17781C13.2024 9.06275 13.0464 8.99811 12.8837 8.99811H6.33958C6.17687 8.99811 6.02082 9.06275 5.90577 9.17781C5.79071 9.29286 5.72607 9.44891 5.72607 9.61162C5.72607 9.77433 5.79071 9.93038 5.90577 10.0454C6.02082 10.1605 6.17687 10.2251 6.33958 10.2251ZM9.61162 12.2702H6.33958C6.17687 12.2702 6.02082 12.3348 5.90577 12.4498C5.79071 12.5649 5.72607 12.721 5.72607 12.8837C5.72607 13.0464 5.79071 13.2024 5.90577 13.3175C6.02082 13.4325 6.17687 13.4972 6.33958 13.4972H9.61162C9.77433 13.4972 9.93038 13.4325 10.0454 13.3175C10.1605 13.2024 10.2251 13.0464 10.2251 12.8837C10.2251 12.721 10.1605 12.5649 10.0454 12.4498C9.93038 12.3348 9.77433 12.2702 9.61162 12.2702ZM19.2232 1.43152V12.5449C19.2237 12.7329 19.187 12.9192 19.115 13.093C19.043 13.2667 18.9373 13.4245 18.804 13.5571L13.5571 18.804C13.4245 18.9373 13.2667 19.043 13.093 19.115C12.9192 19.187 12.7329 19.2238 12.5449 19.2232H1.43152C1.05199 19.2228 0.688121 19.0719 0.419752 18.8035C0.151382 18.5351 0.000425444 18.1713 0 17.7917V1.43152C0.000425444 1.05199 0.151382 0.688121 0.419752 0.419752C0.688121 0.151382 1.05199 0.000425444 1.43152 0H17.7917C18.1713 0.000425444 18.5351 0.151382 18.8035 0.419752C19.0719 0.688121 19.2228 1.05199 19.2232 1.43152ZM1.43152 17.9962H12.2702V12.8829C12.2702 12.7202 12.3348 12.5641 12.4498 12.449C12.5649 12.334 12.721 12.2694 12.8837 12.2694H17.9962V1.43152C17.9962 1.3773 17.9746 1.32532 17.9363 1.28698C17.8979 1.24864 17.8459 1.22708 17.7917 1.22702H1.43152C1.3773 1.22708 1.32532 1.24864 1.28698 1.28698C1.24864 1.32532 1.22708 1.3773 1.22702 1.43152V17.7917C1.22708 17.8459 1.24864 17.8979 1.28698 17.9363C1.32532 17.9746 1.3773 17.9962 1.43152 17.9962ZM17.1294 13.4964H13.4972V17.1286L17.1294 13.4964Z" fill="#FFFBF7"/>
</svg>
