<svg width="20" height="20" viewBox="0 0 20 20" fill="none" xmlns="http://www.w3.org/2000/svg">
<path d="M19.2232 5.85408C19.2237 5.67059 19.1878 5.48883 19.1176 5.31931C19.0474 5.14979 18.9443 4.99587 18.8142 4.86648L14.356 0.408307C14.0939 0.146827 13.7387 -9.16356e-06 13.3684 4.28916e-10C12.9981 9.16442e-06 12.643 0.146863 12.3808 0.408356L0.408995 12.3801C0.272416 12.5167 0.165759 12.6803 0.0958068 12.8603C0.0946376 12.8632 0.0938453 12.8661 0.0927249 12.869C0.0315864 13.0281 0.000158222 13.1972 0 13.3677V17.8258C0.000415096 18.1961 0.1477 18.5511 0.409543 18.813C0.671385 19.0748 1.0264 19.2221 1.3967 19.2225H18.1571C18.3159 19.2225 18.4681 19.1594 18.5804 19.0472C18.6926 18.9349 18.7557 18.7827 18.7557 18.6239C18.7557 18.4652 18.6926 18.3129 18.5804 18.2007C18.4681 18.0884 18.3159 18.0253 18.1571 18.0253H7.63046L18.8141 6.84174C18.9442 6.71235 19.0474 6.55843 19.1176 6.3889C19.1878 6.21937 19.2237 6.03759 19.2232 5.85408ZM1.44505 13.0371L10.176 4.30623L14.9163 9.04654L6.18539 17.7774L1.44505 13.0371ZM1.19717 17.8258V14.4822L4.74032 18.0253H1.3967C1.3438 18.0253 1.29309 18.0042 1.25569 17.9668C1.21828 17.9294 1.19724 17.8787 1.19717 17.8258ZM17.9676 5.99516L15.7627 8.20006L11.0225 3.45974L13.2273 1.25494C13.2647 1.21757 13.3155 1.19659 13.3684 1.19658C13.4213 1.19657 13.4721 1.21754 13.5096 1.25489L17.9676 5.71306C17.9862 5.73158 18.0009 5.75356 18.0109 5.77777C18.0209 5.80197 18.0261 5.82791 18.0261 5.85411C18.0261 5.8803 18.0209 5.90625 18.0109 5.93045C18.0009 5.95465 17.9861 5.97664 17.9676 5.99516Z" fill="#FFFBF7"/>
</svg>
