<svg width="81" height="46" viewBox="0 0 81 46" fill="none" xmlns="http://www.w3.org/2000/svg">
<path d="M42.8108 28.6374C41.2952 29.4842 39.4488 29.4842 37.9332 28.6374L2.41186 8.7906C-1.81064 6.43137 -0.135815 0 4.70108 0C5.5995 0 6.47905 0.257863 7.23525 0.742962L37.6723 20.2681C39.3174 21.3235 41.4266 21.3235 43.0717 20.2681L73.5087 0.742963C74.2649 0.257864 75.1445 0 76.0429 0C80.8798 0 82.5546 6.43136 78.3321 8.79059L42.8108 28.6374Z" fill="#FFFBF7"/>
<path d="M42.9389 44.7604C41.4233 45.6072 39.577 45.6072 38.0613 44.7604L6.18056 26.9476C2.36299 24.8146 3.87722 19 8.25027 19C9.06252 19 9.85771 19.2331 10.5414 19.6717L37.8005 37.1579C39.4456 38.2132 41.5547 38.2132 43.1998 37.1579L70.4589 19.6717C71.1426 19.2331 71.9378 19 72.75 19C77.1231 19 78.6373 24.8146 74.8197 26.9476L42.9389 44.7604Z" fill="#FFFBF7"/>
</svg>
