<svg width="20" height="19" viewBox="0 0 20 19" fill="none" xmlns="http://www.w3.org/2000/svg">
<path d="M19.2201 17.2949C17.847 14.9299 15.648 13.1561 13.046 12.3146C14.2925 11.5729 15.2611 10.4425 15.8029 9.09701C16.3448 7.75153 16.4299 6.26537 16.0453 4.8668C15.6607 3.46824 14.8276 2.23461 13.674 1.35539C12.5203 0.476177 11.1099 0 9.65944 0C8.20896 0 6.79858 0.476177 5.64493 1.35539C4.49129 2.23461 3.65818 3.46824 3.27357 4.8668C2.88895 6.26537 2.97411 7.75153 3.51595 9.09701C4.05779 10.4425 5.02635 11.5729 6.27287 12.3146C3.67098 13.1561 1.47205 14.9299 0.09893 17.2947C0.0505345 17.3784 0.0190878 17.4707 0.00638518 17.5665C-0.0063174 17.6623 -2.71205e-05 17.7597 0.0248971 17.8531C0.0498213 17.9464 0.0928913 18.034 0.151648 18.1107C0.210404 18.1874 0.283697 18.2518 0.36734 18.3002C0.450984 18.3486 0.543341 18.38 0.639138 18.3927C0.734935 18.4054 0.832295 18.3991 0.925661 18.3742C1.01903 18.3493 1.10657 18.3062 1.18329 18.2475C1.26001 18.1887 1.32441 18.1154 1.3728 18.0318C2.2129 16.5775 3.42094 15.3699 4.87553 14.5303C6.33013 13.6908 7.98006 13.2488 9.65956 13.2488C11.3391 13.2488 12.989 13.6908 14.4436 14.5304C15.8981 15.37 17.1062 16.5777 17.9462 18.032C17.9946 18.1157 18.059 18.189 18.1357 18.2478C18.2124 18.3066 18.3 18.3498 18.3934 18.3747C18.4868 18.3997 18.5842 18.406 18.68 18.3933C18.7758 18.3806 18.8682 18.3492 18.9519 18.3007C19.0356 18.2523 19.1089 18.1879 19.1677 18.1111C19.2264 18.0344 19.2695 17.9468 19.2944 17.8534C19.3193 17.76 19.3256 17.6626 19.3128 17.5668C19.3001 17.4709 19.2686 17.3786 19.2201 17.2949ZM4.50826 6.62585C4.50826 5.60705 4.81037 4.61112 5.37639 3.76401C5.94241 2.9169 6.74691 2.25666 7.68817 1.86678C8.62943 1.4769 9.66516 1.37489 10.6644 1.57365C11.6636 1.77241 12.5815 2.26301 13.3019 2.98342C14.0223 3.70382 14.5129 4.62168 14.7117 5.62091C14.9104 6.62014 14.8084 7.65587 14.4185 8.59713C14.0286 9.53838 13.3684 10.3429 12.5213 10.9089C11.6742 11.4749 10.6783 11.777 9.65944 11.777C8.29374 11.7755 6.98441 11.2323 6.01871 10.2666C5.05302 9.30088 4.50981 7.99156 4.50826 6.62585Z" fill="#FFFBF7"/>
</svg>
